<?xml version="1.0" encoding="utf-8"?>
<!DOCTYPE svg PUBLIC "-//W3C//DTD SVG 1.0//EN" "http://www.w3.org/TR/2001/REC-SVG-20010904/DTD/svg10.dtd">
<svg version="1.0" xmlns="http://www.w3.org/2000/svg" width="511px" height="480px" viewBox="0 0 511 480" preserveAspectRatio="xMidYMid meet">
 <g fill="#fffffe">
  <path d="M0 240 l0 -240 255.5 0 255.5 0 0 240 0 240 -255.5 0 -255.5 0 0 -240z m237 222.6 c4.1 -1.5 8.9 -3.4 10.7 -4.2 1.7 -0.8 4 -1.4 5.1 -1.4 1 0 3.1 -0.9 4.5 -2 1.4 -1.1 3 -2 3.6 -2 0.7 0 2.4 -0.9 3.9 -1.9 1.5 -1 5.9 -3.9 9.7 -6.4 13.4 -8.6 30.1 -23.1 35 -30.4 1.5 -2.4 3.1 -4.3 3.6 -4.3 1.8 0 13.3 -5.9 20.4 -10.5 6.8 -4.3 28.5 -21.8 35.1 -28.1 20.2 -19.6 44.8 -55.1 52.4 -75.6 l2.1 -5.8 5.5 0 c3.1 0 6.3 0.4 7.3 1 1.8 0.9 4.5 0.3 11.6 -2.5 1.7 -0.7 4.8 -1.9 7 -2.6 2.7 -0.9 6.9 -4.2 12.6 -9.9 7.1 -7 9.3 -10 12.6 -17 2.2 -4.7 5.2 -13 6.7 -18.5 1.4 -5.5 5.3 -18.9 8.6 -29.9 3.3 -10.9 6 -20.8 6 -22 -0.1 -3.4 -3.5 -10.1 -7.3 -14 -4 -4.1 -14.8 -9.5 -20.5 -10.3 -2.5 -0.3 -6.1 0.4 -11.2 2.2 -10.5 3.8 -24.4 7.3 -31.6 8.1 l-6.1 0.6 -5.1 -10.3 c-14.7 -29.9 -33.5 -54 -57.2 -73.2 -24.4 -19.8 -47.4 -31.7 -74.5 -38.5 -17.6 -4.5 -26.2 -5.6 -43.5 -5.5 -12.8 0 -17.7 0.5 -28.2 2.6 -13.1 2.8 -26.4 6.6 -33.3 9.7 -2.2 1 -6.5 2.7 -9.5 3.8 -11.2 4.1 -29.5 14.5 -33 18.7 -0.7 0.8 -1.6 1.5 -2.1 1.5 -2.1 0 -13.3 9.7 -24.4 21.1 -12.9 13.3 -19.3 21.1 -24.9 30.5 -5.4 9 -6.9 10.4 -10.9 10.4 -2.9 0 -3.6 -0.4 -3.9 -2.2 -0.4 -2.9 -4.1 -2.8 -10.6 0.3 -2.5 1.1 -7.5 2.7 -11.1 3.5 -10.5 2.2 -30.1 7.3 -32.2 8.5 -2.4 1.2 -2.5 4.6 -0.1 5.3 3.1 1 19.9 -2.1 22.5 -4.2 0.7 -0.5 3.7 -1.5 6.7 -2.2 3 -0.7 6.4 -1.6 7.5 -2.1 4.2 -1.7 10.2 -2.9 14.8 -2.9 l4.7 0 0 3.5 c0 1.9 -1.3 6.4 -3 10 -1.6 3.6 -3 6.9 -3 7.4 0 0.4 -2.6 1.1 -5.7 1.4 -5.9 0.5 -27 6.9 -30.8 9.2 -2 1.3 -5.7 2.5 -13.3 4.5 -3.8 1 -4.1 1.3 -3.1 3.1 1.4 2.7 2.8 2.4 28.4 -6.2 1.7 -0.6 6.6 -1.3 10.9 -1.6 l7.9 -0.6 -0.6 5.4 c-0.3 3 -1.1 7.7 -1.7 10.4 -1 4.9 -1.2 5.1 -5.8 6.3 -2.6 0.7 -6.7 1.7 -9.2 2.1 -7.7 1.6 -22.3 6.1 -24.9 7.8 l-2.5 1.6 2.4 1.9 c2.6 2.1 8.1 1.8 11 -0.6 2.3 -2 9.6 -3.7 17.8 -4.3 l7.5 -0.6 -0.7 5.9 c-1.9 15.5 -2.3 24.3 -1.8 41.4 l0.5 18.5 -8.9 2.2 c-13.5 3.5 -22.1 8.1 -26.7 14.5 -8.4 11.5 -8.2 10.4 -8.2 46.3 l0 32 2.8 5.7 c3.3 6.7 9 12.1 16.2 15.4 4.7 2.2 5.7 2.3 11.1 1.4 3.2 -0.6 7.3 -1.7 8.9 -2.5 1.7 -0.7 6.2 -2.5 10.1 -3.9 5.3 -2 8.5 -4 12.8 -8.1 5.3 -5.2 6 -5.5 10.7 -5.5 3 0 6.5 0.8 8.9 2 2.5 1.3 5.9 2 9.5 2 5.5 0 5.7 0.1 14.3 7.5 4.8 4.2 14.5 11.5 21.7 16.2 22.6 15.1 44.1 23.9 70.8 29.1 l14 2.7 -0.7 14.5 c-0.3 8 -0.9 15.5 -1.2 16.6 -0.5 2 -0.3 2.1 3.3 1.4 2.1 -0.4 7.2 -2 11.3 -3.4z m-161 -11.1 c1.6 -0.9 5.1 -1.8 7.7 -2.1 2.7 -0.3 6 -1.5 7.6 -2.6 1.5 -1 5.1 -2.2 8 -2.5 6.7 -0.8 13.3 -3.7 15.3 -6.9 0.9 -1.3 1.4 -2.7 1.1 -3 -0.5 -0.5 -42.7 13 -45.9 14.7 -1.9 1 -2.3 2.1 -1.1 3.2 1.1 1.1 4.2 0.8 7.3 -0.8z m0.5 -26.1 c5.5 -1.8 12.6 -3.6 15.7 -3.9 3.2 -0.4 6.2 -1.3 6.9 -2.1 0.6 -0.7 2.6 -1.6 4.4 -2 1.9 -0.3 4.1 -1.4 5.1 -2.5 2.7 -3 -0.2 -3.3 -11.8 -1 -11 2.2 -38.5 10.4 -40 11.9 -0.5 0.5 -0.6 1.6 -0.2 2.6 0.9 2.3 6.6 1.4 19.9 -3z m283 -0.4 c1.1 -1.7 -0.5 -3.2 -2.1 -1.9 -0.7 0.6 -1.1 1.5 -0.8 2 0.7 1.2 2.1 1.1 2.9 -0.1z m53 -16 c0.3 -0.5 1.4 -1 2.4 -1 1 0 3.2 -0.7 4.7 -1.5 1.6 -0.8 4.1 -1.5 5.5 -1.5 1.5 0 3.2 -0.7 3.9 -1.5 0.7 -0.8 1.8 -1.5 2.5 -1.5 1.8 0 6.5 -3.9 6.5 -5.5 0 -1 -2.5 -0.7 -11.1 1.6 -13.6 3.7 -18.7 5.6 -21.7 8.3 -2.1 1.9 -2.2 2.1 -0.5 2.7 2.7 1.1 7.1 1 7.8 -0.1z m16.7 -31.4 c1.8 -0.8 5.8 -1.9 8.8 -2.6 8 -1.8 13.6 -4.4 15.5 -7.4 2.7 -4 1.1 -4.5 -6.7 -2.4 -4 1.1 -8.7 2.3 -10.5 2.5 -1.8 0.3 -3.8 1.1 -4.4 1.9 -0.6 0.8 -2.6 1.4 -4.3 1.4 -1.7 0 -4.6 0.9 -6.5 2.1 -3.2 1.9 -3.3 2.1 -1.6 4 2.1 2.3 5.2 2.4 9.7 0.5z m-0.7 -27.6 c3.9 -1.2 8.9 -2.8 11.3 -3.6 2.3 -0.8 6.3 -1.4 8.7 -1.4 5.3 0 6.1 -1 3.5 -4.3 -2.9 -3.7 -4.8 -4 -11 -1.7 -3 1.1 -6.8 2 -8.4 2 -4.1 0 -11.1 3.6 -13.1 6.6 -1.8 2.7 -1.3 5.9 0.8 5 0.6 -0.2 4.4 -1.4 8.2 -2.6z m17.2 -231 c5.2 -2.5 9.1 -7.6 7.6 -9.9 -1.4 -2.1 -7.1 -1.6 -13.6 1.1 -6.4 2.8 -8.1 5.2 -6 8.4 1.9 3 6.3 3.2 12 0.4z m-364.6 -27.1 c4.2 -4.5 4.6 -7.2 1.7 -11.7 -5 -7.4 -10.6 -7.8 -14.8 -1 -3.5 5.7 -2.3 10.4 3.3 13.8 4.4 2.7 6.4 2.5 9.8 -1.1z m319.7 -14.6 c-0.2 -0.9 -1.2 -2.2 -2.3 -2.9 -1.8 -1.2 -2.4 -1.1 -4.4 0.2 -1.8 1.3 -2.2 2.3 -1.7 4.7 0.3 1.6 1.2 3.7 1.8 4.5 1 1.2 1.7 0.9 4.1 -1.8 1.5 -1.7 2.7 -3.9 2.5 -4.7z m23.2 -2.7 c0 -0.5 -0.7 -0.3 -1.5 0.4 -0.8 0.7 -1.2 1.7 -0.9 2.2 0.7 1 2.4 -0.9 2.4 -2.6z"/>
  <path d="M32.6 336.3 c0.3 -19.7 0.9 -36.1 1.2 -36.4 1.6 -1.3 21.7 -6 28.5 -6.5 8.8 -0.8 14.8 1.4 19.2 6.9 l2.8 3.5 2.4 -2.9 c1.3 -1.5 5.1 -4.2 8.5 -5.8 5.1 -2.6 7.3 -3.1 13.4 -3.1 8.3 0 11.5 1.1 16.2 5.4 l3.2 3 -0.2 -7.8 c-0.3 -9.1 -1.9 -7.9 15.2 -11.6 5.8 -1.2 11.4 -2.6 12.5 -3.1 1.1 -0.5 3.8 -1.3 6 -1.8 2.2 -0.5 13.9 -3.7 26 -7 12.1 -3.3 23.1 -6.1 24.5 -6.1 1.9 0 3.1 -1.1 5.2 -4.8 3.5 -6.2 9.1 -11.5 15.7 -14.8 7.5 -3.7 19.2 -4.4 27.4 -1.7 l5.7 2 0 -6.6 0 -6.7 6.8 -1.7 c3.7 -0.9 7.9 -1.7 9.5 -1.7 l2.7 0 0 8.1 c0 7.3 0.2 8 1.8 7.4 6.1 -2.6 9.3 -3.4 14 -3.5 10 0 15.1 4.4 16.1 13.9 0.3 3.1 0.9 5.5 1.4 5.4 0.4 -0.1 2.8 -1.8 5.4 -3.8 l4.6 -3.5 -4 0 -4 0 -1.3 -6.9 c-0.7 -3.8 -1.1 -7.5 -0.8 -8.3 0.3 -0.7 4.1 -3.1 8.3 -5.3 7.3 -3.7 8.5 -4 17.5 -4.3 7.5 -0.3 10.5 0 12.9 1.2 l3.1 1.7 0 -4.2 c0 -3.6 0.3 -4.2 3 -5.2 2.9 -1.1 3 -1.4 3 -7.4 0 -5.7 0.2 -6.3 2.3 -6.8 8.8 -2 11.7 -2.5 15 -2.5 l3.8 0 -0.2 4.5 c-0.2 2.4 0 4.7 0.4 5.1 0.3 0.3 2.8 0.3 5.6 -0.1 l5 -0.7 -0.2 -6.5 -0.2 -6.6 6.5 -1.8 c3.6 -1 8 -1.8 9.8 -1.9 3.2 0 3.2 0 3.2 4.9 l0 4.9 8.8 -2.1 c4.8 -1.1 10.5 -2.1 12.6 -2.1 l3.9 -0.1 4.5 10.9 4.6 10.9 1.8 -5.4 c1.1 -3 2.8 -9.4 3.8 -14.3 1 -4.8 2.1 -9 2.4 -9.3 0.9 -1 12.1 -3.3 15.9 -3.3 3.5 0 3.7 0.2 3.7 3.2 0 6.1 -15.8 57.6 -20.6 67.1 -4.8 9.4 -13 14.7 -22.8 14.7 l-5.3 0 -0.7 -6 c-0.4 -3.3 -0.8 -6 -0.9 -6 -0.1 0 -2.6 0.9 -5.5 2 -9.1 3.5 -17.6 2.1 -22 -3.5 -2 -2.5 -2.2 -3.9 -2.2 -16.6 0 -7.7 -0.4 -13.9 -0.9 -13.9 -0.5 0 -1.4 0.7 -2.1 1.5 -0.7 0.8 -2.3 1.5 -3.7 1.5 -5.2 0 -6.3 1.5 -6.3 9 0 9.8 0.1 9.9 6.6 9.3 l5.4 -0.6 0 9.5 0 9.6 -4.9 2.1 c-5.8 2.5 -13.9 2.8 -18 0.6 -1.6 -0.8 -4 -2.8 -5.5 -4.5 l-2.6 -3.2 0 6.6 c0 6.3 -0.1 6.7 -2.7 7.8 -1.6 0.6 -5.7 1.2 -9.1 1.4 -3.8 0.1 -7.1 0.9 -8 1.7 -5.8 5.1 -18.4 6.4 -25.5 2.8 l-3.7 -1.9 0 3.8 c0 2.2 -0.4 4.2 -1 4.5 -1.9 1.2 -12.2 3.5 -15.5 3.5 l-3.5 0 0 -16.9 c0 -20 -0.5 -21.1 -7 -16.6 -2.2 1.5 -4.4 3.3 -5 3.9 -0.5 0.7 -1.1 8.9 -1.2 18.5 l-0.3 17.3 -5 1.9 c-2.7 1 -6.9 1.9 -9.2 1.9 -4.2 0 -4.3 -0.1 -4.3 -3.2 l0 -3.3 -4.3 4.5 c-6.9 7.1 -12.5 9.5 -22.7 9.5 -9.4 0 -14.6 -1.4 -19 -5.2 l-3 -2.5 0 8 0 7.9 -9.2 2.8 c-5.1 1.5 -11.1 3.2 -13.3 3.8 -2.2 0.5 -5.4 1.6 -7.2 2.3 -1.7 0.8 -5.3 1.4 -8 1.4 -2.7 0 -5.3 0.4 -5.8 0.9 -1 0.9 -14.5 5.8 -20 7.2 -1.6 0.4 -7.2 1.9 -12.3 3.3 -11.2 3.1 -16.2 3.4 -16.2 0.9 0 -1.3 -0.7 -1 -3.2 1.4 -4.9 4.6 -9.5 6.5 -16.8 7.1 -9.5 0.6 -14.6 -1.1 -20.1 -6.8 -2.6 -2.7 -5 -6.2 -5.4 -8 l-0.7 -3.2 -2.6 2.5 c-3.6 3.4 -15 8.7 -18.7 8.7 -4.9 0 -5.5 1.4 -5.5 12.5 0 13 -0.4 13.5 -11.8 13.5 l-8.2 0 0.6 -35.7z m28 -12.3 c1.1 -0.8 2.9 -2.7 3.8 -4.3 2.6 -3.9 0.7 -6.1 -4.7 -5.3 -6.9 1.1 -7.7 2 -7.7 8.1 l0 5.4 3.3 -1.2 c1.8 -0.7 4.2 -1.9 5.3 -2.7z m69 1.2 c-2.2 -0.5 -3 0.3 -2.1 1.8 0.5 0.8 1.1 0.7 2.2 -0.2 1.5 -1.2 1.4 -1.3 -0.1 -1.6z m12.3 -19.3 l2.2 -3.7 -6.8 0.5 c-3.7 0.3 -7 0.7 -7.2 0.9 -0.2 0.2 0.1 1.6 0.8 3 0.6 1.4 1.4 5.3 1.8 8.6 l0.6 5.9 3.2 -5.8 c1.7 -3.2 4.1 -7.4 5.4 -9.4z m20.1 10.6 c2.3 -0.8 5.2 -1.5 6.4 -1.5 2.6 -0.1 8.7 -7.7 14.5 -17.9 l4.1 -7.3 -2.7 0.7 c-1.6 0.4 -4.9 0.9 -7.6 1.2 -4.4 0.5 -4.9 0.8 -7.3 5.1 -3.1 5.5 -9.2 15.8 -11.2 19 -1.7 2.6 -1.7 2.6 3.8 0.7z m42 -12 c2.3 -0.8 5.8 -1.5 7.7 -1.5 l3.4 0 -1.7 -3.2 c-0.9 -1.7 -2.1 -4.9 -2.8 -7.2 l-1.2 -4 -4.5 7.5 c-5.8 9.4 -6.1 9.9 -5.6 9.9 0.3 0 2.4 -0.7 4.7 -1.5z m42.1 -14 c2.7 -1.4 5.9 -3.5 7 -4.6 1.7 -1.7 3.1 -2 7.5 -1.7 l5.4 0.3 0 -12.8 c0 -12.3 -0.1 -12.7 -1.9 -11.7 -1.1 0.5 -2.3 1.5 -2.6 2 -1 1.6 -7.7 1.2 -9.6 -0.6 -6.2 -5.6 -21.9 8.4 -21.9 19.5 0 3.5 2.8 8 6.3 10.1 4 2.5 3.8 2.5 9.8 -0.5z m96.1 -24.6 l3.3 -3 -4.2 2.1 c-2.4 1.1 -4.3 2.5 -4.3 3 0 1.8 1.9 1 5.2 -2.1z m92.5 -11.4 c5.8 -2.9 5.8 -3.1 -0.3 -17.8 l-5.6 -13.5 -4.1 1.9 c-2.3 1 -5 1.9 -5.9 1.9 -1.6 0 -1.8 1 -1.8 7.4 0 10.4 0.1 10.6 7.1 10.6 l5.9 0 0 3.3 c0 2.9 0.9 7.7 1.5 7.7 0.1 0 1.6 -0.7 3.2 -1.5z"/>
  <path d="M122.5 163.5 c-2.2 -2.1 -2.5 -3.3 -2.5 -9 0 -11.5 2.9 -14.4 14.3 -14.5 6.5 0 8 0.3 9.8 2.1 1.8 1.8 2.1 3 1.7 9.2 -0.4 6.8 -0.5 7.1 -4.7 10.9 -4 3.5 -4.8 3.8 -10.3 3.8 -4.9 0 -6.3 -0.4 -8.3 -2.5z"/>
  <path d="M151.2 137.3 c-2.5 -1 -5.2 -8.1 -5.2 -13.7 0 -10.5 1.6 -14.1 10.3 -22.2 4.3 -4.1 8.4 -7.4 9.2 -7.4 0.7 0 1.8 -0.6 2.5 -1.4 1.9 -2.3 19.1 -10.3 27.2 -12.5 18.1 -5.1 25.8 -6.2 46.8 -6.7 14.6 -0.4 22.7 -0.2 28 0.8 7.2 1.2 7.5 1.4 7.8 4.2 0.2 1.6 -0.1 3.9 -0.6 5 -1.5 3 -2.2 10.6 -1 10.6 0.5 0 0.8 1.7 0.6 3.8 l-0.3 3.7 -13.5 0.6 c-16.2 0.8 -27.7 3.4 -50.5 11.5 -17.5 6.2 -32.4 13.2 -42.3 20 -5.8 4 -7 4.4 -12.1 4.3 -3.1 0 -6.2 -0.3 -6.9 -0.6z"/>
 </g>
 <g fill="#06caca">
  <path d="M219.4 463.3 c0.4 -4.3 0.9 -12.1 1.3 -17.3 l0.6 -9.5 -14 -2.7 c-26.7 -5.2 -48.2 -14 -70.8 -29.1 -7.2 -4.7 -16.9 -12 -21.7 -16.2 -8.6 -7.4 -8.8 -7.5 -14.3 -7.5 -3.6 0 -7 -0.7 -9.5 -2 -2.2 -1.1 -4.8 -2 -5.9 -2 -1.1 0 -4.6 2.5 -7.7 5.5 -4.3 4.1 -7.4 6.1 -12.8 8 -3.9 1.5 -8.4 3.3 -9.9 4.1 -1.5 0.7 -6.5 1.9 -11.1 2.6 -7.4 1 -8.9 1 -12.9 -0.6 -10 -3.8 -17.5 -11.7 -20.3 -21.2 -1.2 -4.3 -1.4 -11 -1.2 -38.1 0.3 -36.8 0.1 -35.6 8.5 -47.1 4.6 -6.4 13.2 -11.1 26.7 -14.5 l8.9 -2.2 -0.7 -17.5 c-0.6 -16.5 0.4 -36.2 2 -40.4 0.7 -1.7 0.3 -1.8 -4.2 -1.2 -6.9 1 -12.6 2.7 -14.5 4.3 -2 1.6 -10.7 2.8 -14.3 1.9 -5.6 -1.4 -6.9 -8 -2.3 -11.1 2.4 -1.5 17.3 -6.1 24.7 -7.6 2.5 -0.4 6.6 -1.4 9.2 -2.1 4.7 -1.2 4.8 -1.3 5.8 -6.8 0.6 -3 1.4 -6.4 1.7 -7.4 0.5 -1.7 0.1 -1.8 -4.3 -1.2 -5.2 0.7 -6.4 1 -19.9 5.4 -11.8 3.9 -18 5.3 -20 4.6 -2.1 -0.9 -3.5 -3.7 -3.5 -7.3 0 -2.7 0.4 -3.1 4.3 -4.1 7.5 -2 11.2 -3.2 13.2 -4.5 3.8 -2.3 24.9 -8.7 30.8 -9.2 3.1 -0.3 5.7 -1 5.7 -1.4 0 -0.5 1.4 -3.8 3 -7.5 1.7 -3.7 2.8 -6.9 2.6 -7.2 -0.6 -0.6 -11.1 1.6 -13.6 2.8 -0.8 0.4 -3.7 1.3 -6.5 1.9 -2.7 0.6 -6.3 1.8 -8 2.5 -4.4 2 -9.8 3.6 -12.3 3.6 -1.2 0 -4.1 0.5 -6.6 1.2 -7.8 2.1 -12.9 -1.9 -11.2 -8.7 0.3 -1.3 1.5 -2.9 2.5 -3.5 2.1 -1.1 21.7 -6.2 32.2 -8.4 3.6 -0.8 8.7 -2.5 11.5 -3.7 3.2 -1.6 6.8 -2.4 10.4 -2.4 4.9 0 5.5 0.2 5.8 2.3 0.2 1.2 0.6 2.2 0.9 2.2 0.9 0 4.3 -4.4 7.9 -10.4 5.6 -9.4 12 -17.2 24.9 -30.5 11.1 -11.4 22.3 -21.1 24.4 -21.1 0.5 0 1.4 -0.7 2.1 -1.5 3.5 -4.2 21.8 -14.6 33 -18.7 3 -1.1 7.3 -2.8 9.5 -3.8 6.8 -3 20.2 -6.9 33.3 -9.7 11 -2.3 15.1 -2.6 31.2 -2.7 31.1 0 52 4.8 82.7 18.9 18.2 8.4 44.9 28.7 59.5 45.2 16.7 18.8 25.5 31.8 35.9 53 5.1 10.2 5.1 10.2 8.2 9.6 6.6 -1.1 21.5 -5.2 28.7 -7.8 10 -3.6 17.7 -3.3 27.3 1.3 11.3 5.3 18.1 14.4 18 24.2 0 2.5 -2.8 13.3 -6.2 24.5 -3.4 11 -7.3 24.5 -8.7 30 -1.5 5.5 -4.5 13.8 -6.7 18.5 -3.3 7 -5.5 10 -12.6 17 -5.7 5.7 -9.9 9 -12.6 9.9 -2.2 0.7 -5.3 1.9 -7 2.6 -6.4 2.7 -11.4 3.7 -14.7 3.1 -10.3 -2.1 -9.4 -2.4 -11.8 4.1 -7.6 20.6 -32.2 56 -52.4 75.7 -6.6 6.3 -28.3 23.8 -35.1 28.1 -7.1 4.6 -18.6 10.5 -20.4 10.5 -0.5 0 -2.1 1.9 -3.6 4.3 -4.9 7.3 -21.6 21.8 -35 30.4 -3.8 2.5 -8.2 5.4 -9.7 6.4 -1.5 1 -3.2 1.9 -3.9 1.9 -0.6 0 -2.2 0.9 -3.6 2 -1.4 1.1 -3.5 2 -4.5 2 -1.1 0 -3.4 0.6 -5.1 1.4 -8.2 3.7 -27.6 9.6 -31.6 9.6 -0.2 0 -0.1 -3.5 0.3 -7.7z m35.2 -22.8 c7.9 -4 16.3 -8.8 18.6 -10.6 12.4 -9.6 20.4 -17 26 -24.1 3.4 -4.3 7.1 -8.1 8.2 -8.4 18.3 -5.6 50.8 -31.7 70.1 -56.3 16.1 -20.4 28.8 -42.9 32.4 -57.3 l1.9 -7.3 4.6 -0.3 c3.6 -0.2 6.1 0.4 10.8 2.7 3.4 1.7 7.1 3.1 8.3 3.1 3.7 0 17.8 -7.5 23.3 -12.5 7.6 -6.8 13 -18.5 18.6 -40 2.4 -9.3 5.6 -21 7 -26 4.4 -15 3.6 -20.4 -3.6 -24.1 -2.5 -1.3 -3.6 -1.4 -5 -0.5 -1 0.6 -3.1 1.1 -4.7 1.1 -1.7 0 -3.2 0.4 -3.6 0.9 -0.5 0.9 -1.8 1.4 -14.5 5.1 -8.5 2.4 -23.5 5 -29.2 5 -6.6 0 -8.7 -2.2 -14.8 -15.7 -6.3 -14 -8.2 -17.6 -17.2 -31.1 -14.9 -22.6 -32.2 -40.1 -54.3 -54.7 -20.1 -13.4 -36.8 -20.3 -61.9 -25.7 -13.1 -2.8 -42.4 -3 -55.1 -0.3 -4.4 0.9 -9.7 1.9 -11.8 2.2 -2 0.3 -4 0.9 -4.3 1.4 -0.3 0.5 -1.8 0.9 -3.4 0.9 -2.8 0 -13.4 3.4 -15.5 5 -0.5 0.4 -2.5 1.1 -4.3 1.5 -1.8 0.4 -4.5 1.7 -6 2.9 -1.5 1.2 -3.4 2.6 -4.2 2.9 -0.8 0.4 -2.2 1.1 -3 1.6 -0.8 0.5 -3.7 2 -6.5 3.2 -7 3.2 -16 9.8 -22.5 16.3 -3 3.1 -6.2 5.6 -7.1 5.6 -0.9 0 -6.6 5.1 -12.6 11.3 -28.3 29.2 -44.3 64.9 -49.4 110.2 -1.8 16.3 0.3 45.9 3.6 49.5 0.8 0.9 1.5 3.1 1.5 4.8 l0 3.2 -5.7 0 c-6.1 0 -24.4 4 -29.7 6.5 -1.7 0.8 -4.9 2 -7 2.7 -2.2 0.7 -4.9 2.6 -6 4.1 -2 2.8 -2.1 3.9 -2.1 38.6 0 40.3 -0.2 39.2 7.7 43.2 4.2 2.1 4.2 2.1 12.2 0.3 8.8 -1.9 14.5 -5.4 17.2 -10.5 0.8 -1.6 2 -6.6 2.6 -11.1 0.6 -4.6 1.6 -8.6 2.2 -9 0.6 -0.4 3.2 -0.8 5.7 -0.8 4.4 0 5.1 0.4 9.9 5.4 7.1 7.4 11.1 8.9 22.8 8.7 l9.3 -0.2 8.2 8.3 c4.5 4.6 11.2 10.4 14.8 13 10.1 7.2 30.3 18.3 42.1 23.3 13.8 5.9 37.4 11.5 48.2 11.5 l7.8 0 -0.4 12.8 c-0.3 7 -0.9 13.5 -1.3 14.5 -1.4 3.3 5.7 1 21.1 -6.8z"/>
  <path d="M233 409.4 c-0.8 -0.1 -4.5 -0.6 -8.2 -0.9 l-6.8 -0.7 0 -3.2 c0 -2.1 0.8 -4 2.3 -5.3 3 -2.8 15.9 -7.3 20.9 -7.3 l4 0 -0.4 5 -0.3 5 3.8 0 c3.7 0 3.7 0 3.7 4 l0 4 -8.7 -0.1 c-4.9 -0.1 -9.5 -0.3 -10.3 -0.5z"/>
  <path d="M139.3 374 c-1.3 -1.5 -2.3 -4.2 -2.3 -5.9 0 -3 0.2 -3.1 4.3 -3.1 5.5 0 6.7 1.3 6.7 7.2 0 4.8 0 4.8 -3.2 4.7 -2.4 0 -3.9 -0.8 -5.5 -2.9z"/>
  <path d="M270 367.5 c0 -2.9 0.4 -3.6 2.5 -4.1 1.4 -0.3 2.9 -1.3 3.3 -2 0.4 -0.8 3.2 -1.8 6.2 -2.4 10.5 -1.8 20.1 -3 23.6 -3 3.4 0 3.5 0.1 3.2 3.6 -0.3 3.5 -0.5 3.7 -6.3 5.4 -12.2 3.5 -23.7 6 -28 6 -4.5 0 -4.5 0 -4.5 -3.5z"/>
  <path d="M32 358 c0 -6.1 0.3 -8 1.4 -8 1.6 0 2.6 3 2.6 8 0 5 -1 8 -2.6 8 -1.1 0 -1.4 -1.9 -1.4 -8z"/>
  <path d="M249.2 360.4 c0.3 -3.3 0.8 -4.2 3.8 -5.6 2.3 -1.2 5.8 -1.8 10.3 -1.8 l6.7 0 0 3.5 c0 3 -0.4 3.6 -2.7 4.1 -1.6 0.4 -3.3 1.1 -3.9 1.6 -0.7 0.5 -4.2 1.1 -7.9 1.5 l-6.6 0.6 0.3 -3.9z"/>
  <path d="M204 354.5 c0 -3.8 1.6 -4.9 8.5 -6.2 1.7 -0.3 3.7 -1.1 4.5 -1.8 0.8 -0.6 3.1 -1.7 5 -2.5 1.9 -0.7 5.1 -2 7 -2.8 2.3 -1.1 7.3 -1.8 14.3 -2 l10.8 -0.4 -0.3 3.7 -0.3 3.7 -11.5 3.9 c-6.3 2.1 -13.3 3.9 -15.5 3.9 -2.4 0 -5 0.8 -6.5 2 -1.9 1.5 -4.1 2 -9.2 2 l-6.8 0 0 -3.5z"/>
  <path d="M297 346.6 c0 -2.4 0.6 -4.8 1.3 -5.4 2.1 -1.8 24.1 -7.2 29.1 -7.2 4.6 0 4.6 0 4.6 3.3 0 3.1 -0.4 3.5 -3.8 4.5 -2.1 0.7 -4.9 2.1 -6.2 3.2 -1.5 1.3 -3.7 2 -6.7 2 -2.3 0 -4.3 0.5 -4.3 1 0 0.6 -1.6 1 -3.5 1 -1.9 0 -3.5 0.5 -3.5 1 0 0.6 -1.6 1 -3.5 1 -3.5 0 -3.5 0 -3.5 -4.4z"/>
  <path d="M359 334 c0 -2 -0.5 -3 -1.5 -3 -1 0 -1.5 -1 -1.5 -3.4 0 -2.9 0.4 -3.6 3.1 -4.5 1.8 -0.6 5.6 -1.1 8.5 -1.1 5.4 0 5.4 0 5.4 3.2 0 1.8 -1.1 4.6 -2.7 6.7 -3.5 4.6 -4.1 5.1 -8 5.1 -3 0 -3.3 -0.3 -3.3 -3z"/>
  <path d="M313.2 322.4 c0.3 -3.6 0.7 -4.1 5.3 -6.3 5.7 -2.8 15.8 -5 22.8 -5.1 l4.8 0 -0.3 3.7 -0.3 3.8 -11 3.2 c-6 1.8 -13.4 3.6 -16.3 3.9 l-5.3 0.7 0.3 -3.9z"/>
  <path d="M83.3 226.3 c0.4 -8.2 1.4 -18.2 2.2 -22.3 3.6 -17.8 11.3 -37.5 21.4 -54.7 6.6 -11.3 22.7 -30.2 32.5 -38.3 7.2 -5.8 7.6 -6 13.2 -6 l5.8 0 -3.5 3.8 c-5.8 6.1 -7.4 14.4 -3.9 21.1 3.3 6.6 7.3 6.8 16.2 0.7 9.9 -6.8 24.8 -13.8 42.3 -20 23 -8.2 34.3 -10.7 50 -11.3 13.6 -0.5 17.6 -1.6 10.5 -2.8 l-4.2 -0.7 3.6 -3.3 c3 -2.7 3.6 -4 3.6 -7.2 0 -2.1 0.5 -4.4 1.2 -5.1 0.9 -0.9 0.6 -1.4 -1.3 -2.1 -2.2 -0.8 -2.2 -1 -0.6 -1.6 5.7 -2.3 27.4 4.1 45.6 13.6 24 12.4 45.3 31.2 60.5 53.7 4.4 6.5 5.6 9.1 5.6 12.1 l0 3.8 -5.7 0.5 c-3.6 0.4 -16.9 4.4 -34.3 10.3 -15.7 5.3 -30.4 9.9 -32.7 10.2 -4.2 0.5 -4.3 0.4 -4.3 -2.3 0 -1.6 0.4 -4.6 0.9 -6.6 1.6 -7 -5.4 -18.1 -13.9 -21.7 -4.2 -1.8 -5.9 -2 -9.9 -1.3 -12.4 2.3 -22.1 13.1 -22.1 24.8 0 3.4 3.4 11.9 5.1 13 0.5 0.3 0.9 2.5 0.9 5 l0 4.4 -4.5 0 c-7.4 0 -47 11.9 -49 14.7 -0.7 0.9 -2.4 1.3 -4.5 1.1 -3 -0.3 -3.5 -0.7 -3.8 -3.1 -0.2 -1.6 0.4 -4.6 1.2 -6.8 2.2 -5.4 2 -8.5 -0.8 -14.6 -2.5 -5.3 -7.4 -9.7 -13.7 -12.3 -2.7 -1.2 -3.9 -1.1 -8.8 0.5 -10.7 3.6 -17.5 10 -20.2 19.2 -1 3.5 -0.9 5 0.6 9.5 0.9 2.9 2.8 6.7 4.1 8.5 1.3 1.7 2.4 4.5 2.4 6.1 0 2.9 0 2.9 -7.7 3.6 -8 0.6 -9.1 0.9 -30.1 7 -6.8 2 -12.8 3.6 -13.4 3.6 -0.5 0 -3.8 1.3 -7.2 2.8 -6.3 3 -17.2 5.2 -25.3 5.2 l-4.6 0 0.6 -14.7z m54.6 -67 c5.3 -4.8 6.7 -10.7 3.2 -14.2 -2.7 -2.7 -10.6 -2.9 -13.7 -0.3 -5.1 4 -6 11.7 -1.9 15.7 3.6 3.7 7.4 3.3 12.4 -1.2z"/>
  <path d="M65 454.1 c-1.6 -3.1 -1.2 -5.9 1.3 -7.5 4.1 -2.7 45.4 -15.6 49.8 -15.6 l4.2 0 -0.6 3.6 c-0.3 2 -1.3 4.7 -2.1 6 -2 3 -8.7 5.9 -15.3 6.7 -2.9 0.3 -6.5 1.5 -8 2.5 -1.6 1.1 -4.9 2.3 -7.6 2.6 -2.6 0.3 -6.1 1.2 -7.7 2.1 -4.4 2.3 -12.7 2 -14 -0.4z"/>
  <path d="M54 432.1 c-1.7 -3.2 -1.2 -8.9 0.8 -10 3.5 -1.9 32.1 -10 40.8 -11.6 5 -0.9 10.8 -1.5 13 -1.3 3.6 0.3 3.9 0.5 4.2 3.6 0.4 4.2 -1.7 6.8 -6.3 7.6 -1.8 0.4 -3.8 1.3 -4.4 2 -0.7 0.8 -3.7 1.7 -6.9 2.1 -3.1 0.3 -10.4 2.1 -16.2 4 -19.2 6 -23.3 6.6 -25 3.6z"/>
  <path d="M354.5 428.5 c-2.9 -2.8 -3.1 -4.2 -0.9 -7.3 2 -2.9 7.9 -3.1 9.4 -0.3 1.6 3.1 1.2 5.6 -1.3 7.9 -3 2.8 -4.2 2.8 -7.2 -0.3z"/>
  <path d="M400.7 412.3 c-1.6 -0.3 -3.1 -1.1 -3.4 -1.9 -0.7 -2 5.2 -8.1 9.7 -10.1 5.3 -2.2 28 -8.3 31.2 -8.3 2.7 0 2.8 0.2 2.8 4.4 0 3.6 -0.5 4.8 -2.6 6.5 -1.5 1.2 -3.2 2.1 -3.9 2.1 -0.7 0 -1.8 0.7 -2.5 1.5 -0.7 0.8 -2.4 1.5 -3.9 1.5 -1.4 0 -3.9 0.7 -5.5 1.5 -1.5 0.8 -3.7 1.5 -4.7 1.5 -1 0 -2.1 0.5 -2.4 1 -0.6 1 -9.1 1.1 -14.8 0.3z"/>
  <path d="M383 400.9 c-0.7 -1.1 -0.9 -3.2 -0.6 -4.5 0.5 -1.9 1.3 -2.4 4 -2.4 5.9 0 8.6 4.5 4.4 7.4 -3.1 2.2 -6.5 2 -7.8 -0.5z"/>
  <path d="M416 379.3 c-1.1 -1.5 -2 -3.6 -1.8 -4.7 0.4 -2.8 6.4 -6.6 10.3 -6.6 1.8 0 3.8 -0.7 4.5 -1.5 0.7 -0.8 2.2 -1.5 3.3 -1.5 1.1 0 3.4 -0.4 5.1 -1 19.3 -6.1 20.6 -6.1 20.6 1.2 0 5.6 -3.7 9 -12.7 11.7 -3.9 1.2 -7.9 2.1 -8.9 2.1 -1 0.1 -3 0.7 -4.4 1.5 -1.4 0.8 -5.1 1.4 -8.2 1.5 -5 0 -5.9 -0.3 -7.8 -2.7z"/>
  <path d="M415.7 355.3 c-1.5 -2.8 -1.5 -6.3 0.2 -9.3 2.1 -4 8.9 -8 13.5 -8 1.7 0 5.6 -1 8.6 -2.1 3 -1.2 6.6 -2.3 8 -2.6 3.6 -0.6 9.2 3.5 10.6 7.7 1.7 5.1 0.3 7 -5 7 -3.9 0 -14.7 2.8 -25.1 6.6 -4.4 1.5 -10.1 1.9 -10.8 0.7z"/>
  <path d="M430.6 121.5 c-1.9 -2.8 -2.1 -6.8 -0.5 -9.6 1.3 -2.5 10.3 -6.9 14.1 -6.9 1.5 0 3 -0.4 3.3 -1 1 -1.6 6.1 -1.1 7.8 0.8 3 3.3 3.1 6.9 0.3 11.2 -3.5 5.3 -9.3 8 -17.2 8 -5.5 0 -6.4 -0.3 -7.8 -2.5z"/>
  <path d="M73.3 98 c-6.7 -1.6 -11.3 -7 -11.3 -13.2 0.1 -3.6 3.6 -10.5 6.3 -12.3 3.3 -2.1 9.8 -2.2 13 0 8.8 5.7 8.9 19.2 0.2 24.9 -2.6 1.7 -3.3 1.8 -8.2 0.6z"/>
  <path d="M390.9 86.4 c-1.8 -2.2 -2.5 -12 -0.9 -13.9 2.1 -2.5 7.1 -3.4 10.2 -1.8 5.6 2.8 6.3 8.1 1.7 13.6 -2.4 2.9 -3.8 3.7 -6.4 3.7 -1.8 0 -3.8 -0.7 -4.6 -1.6z"/>
  <path d="M419.5 80.5 c-2.9 -2.8 -3.1 -4.2 -0.9 -7.3 1.1 -1.5 2.5 -2.2 5 -2.2 3.2 0 3.4 0.2 3.4 3.5 0 4.2 -1.9 8.5 -3.7 8.5 -0.8 0 -2.5 -1.1 -3.8 -2.5z"/>
  <path d="M435.7 79.2 c-3.6 -3.9 -1 -8.1 5.1 -8.2 2.9 0 3.2 0.3 3.2 2.8 0 2.8 -3.5 7.2 -5.7 7.2 -0.5 0 -1.7 -0.8 -2.6 -1.8z"/>
 </g>
 <g fill="#0891cc">
  <path d="M220 467 c0 -1.8 0.4 -2.9 1 -2.5 0.6 0.3 1 1.2 1 2 0 0.9 0.8 1.2 2.6 0.9 1.8 -0.3 2.5 -0.1 2.2 0.8 -0.3 0.7 -1.9 1.4 -3.6 1.6 -3 0.3 -3.2 0.1 -3.2 -2.8z"/>
  <path d="M231.5 454.1 c0.3 -0.5 0.1 -1.2 -0.5 -1.6 -1.1 -0.7 -1.3 -5.7 -0.4 -9.2 1.1 -3.9 3.4 -2.8 3.4 1.7 0 3 0.5 4.2 2.2 5.1 l2.1 1.2 -2.2 1.1 c-1.2 0.7 -1.8 1.5 -1.5 1.9 0.4 0.4 -0.3 0.7 -1.5 0.7 -1.2 0 -2 -0.4 -1.6 -0.9z"/>
  <path d="M249 418.6 c0 -10.8 0.2 -10.6 -10.2 -10.6 -3.2 0 -5.8 -0.4 -5.8 -0.9 0 -0.5 3.5 -0.7 8 -0.4 5.7 0.4 8 0.3 8 -0.6 0 -0.7 -2.4 -1.1 -6.7 -1.2 -5.8 0 -6.4 -0.2 -4 -1.1 2 -0.7 2.6 -1.5 2.2 -2.8 -0.3 -1 -0.1 -2.1 0.5 -2.5 1.9 -1.2 1.2 -3.8 -0.9 -3.2 -1.6 0.4 -1.8 0.1 -1.2 -1.6 0.6 -1.6 3.3 -2.7 13.4 -5.4 6.9 -1.8 16.8 -4.7 21.9 -6.3 17.9 -5.9 37.9 -11 43.4 -11 l5.4 0 0 3.5 c0 3.4 -0.1 3.4 -13.2 9.9 -12.9 6.3 -13.5 6.7 -18.5 13.5 -5.8 7.7 -25.5 26 -30.8 28.5 -1.8 0.9 -5.1 1.6 -7.4 1.6 l-4.1 0 0 -9.4z"/>
  <path d="M175.9 395.7 c-3 -1.8 -6.9 -3.9 -8.6 -4.6 -2.9 -1.2 -3.3 -1.8 -3.3 -5.3 0 -3.6 0.3 -4 3.8 -5.5 2 -0.8 7.5 -2.7 12.2 -4 4.7 -1.4 17.6 -5.3 28.7 -8.9 22.5 -7.1 36 -10.4 42.9 -10.4 l4.6 0 -2.3 2 -2.4 2 4 -0.6 c2.2 -0.4 4.5 -1.1 5.1 -1.6 0.7 -0.5 2.2 -1.1 3.4 -1.3 4.6 -0.9 3.3 -1.7 -1.9 -1.3 -4.8 0.5 -5.2 0.4 -3.6 -0.8 1 -0.8 2.3 -1.4 2.8 -1.4 0.6 0 1.5 -0.6 2.1 -1.4 2.3 -3 35.3 -12.4 39.5 -11.3 1.2 0.3 2.4 0.1 2.7 -0.4 0.3 -0.5 2.2 -0.9 4.2 -0.8 3.5 0 3.5 0.1 -1.7 1.5 -6.2 1.7 -8.2 2.9 -8 5.3 0.1 1.3 0.2 1.2 0.6 -0.2 0.4 -1.5 1.1 -1.8 3.8 -1.3 2.4 0.5 3.4 0.3 3.9 -0.9 0.4 -1.2 1.6 -1.5 4.6 -1.1 2.8 0.3 4.4 0 5.5 -1.1 0.9 -0.8 3.7 -2.4 6.3 -3.5 4.4 -1.8 4.5 -1.9 1.2 -1.4 -1.9 0.3 -5.1 0.7 -7 1 -3.4 0.6 -3.4 0.6 1 -1.5 2.5 -1.2 4.7 -2.5 5 -2.9 0.9 -1.3 13.3 -5.8 21.7 -7.9 8.4 -2.2 12.9 -2.6 15.8 -1.4 1.4 0.5 1.2 0.8 -1.1 1.9 -2.8 1.2 -2.8 1.2 -0.5 1.3 2.1 0.1 2.3 0.5 1.8 3.1 -0.8 3.6 -0.4 3.7 2.3 0.8 l2 -2.2 0 3.5 c0 2.3 -1.3 5.3 -4.2 9.5 -4.5 6.8 -7.9 8.8 -16.3 9.7 -2.7 0.3 -11.8 2.8 -20.1 5.6 -9.2 3 -18.7 5.4 -24 6 -11.8 1.4 -14.1 1.3 -7.4 -0.5 3 -0.8 5.9 -1.9 6.4 -2.4 0.4 -0.4 1.4 -0.6 2.1 -0.4 0.7 0.3 1.6 0.1 2 -0.5 0.9 -1.5 -1 -1.4 -8 0.4 -3.2 0.9 -7.1 1.3 -8.7 1 -1.8 -0.4 -2.8 -0.2 -2.8 0.5 0 0.6 -0.4 0.9 -1 0.5 -1.2 -0.7 -6.3 0.5 -5.5 1.4 0.4 0.3 -1.1 1.3 -3.2 2.3 -4.3 1.9 -2 2.4 3.5 0.9 3.4 -1 4.6 0.3 1.2 1.4 -1.1 0.3 -2 1.2 -2 1.8 0 1.8 -7 4.3 -29.5 10.3 -17.3 4.6 -39.6 11.4 -49.4 15 -12.2 4.4 -16.9 4.5 -24.2 0.1z"/>
  <path d="M416.7 380.2 c-1 -1 -1.7 -3.2 -1.7 -4.8 l0.1 -2.9 1.8 2.3 c1.1 1.2 2.4 2.2 3 2.2 1.7 0 2.3 2 1.1 3.5 -1.6 1.9 -2.3 1.9 -4.3 -0.3z"/>
  <path d="M142 375.2 c0 -2.2 -1.9 -4.2 -3.9 -4.2 -2.5 -0.1 -5.3 -4.7 -4.9 -8.2 0.2 -2.1 1.4 -4 3.8 -5.9 3.4 -2.8 5 -3.3 36.5 -11.5 5.5 -1.4 13.2 -3.6 17 -4.9 3.9 -1.3 9.9 -3.1 13.5 -4 3.6 -0.9 7.4 -2.1 8.5 -2.5 3.1 -1.3 11.2 -3.6 21 -6 5 -1.2 13.3 -3.5 18.5 -5 5.2 -1.6 20.1 -6.1 33 -10 12.9 -3.9 26.4 -8 29.9 -9 3.5 -1.1 9.1 -2.5 12.5 -3.1 3.3 -0.6 8.4 -1.9 11.1 -2.9 14.6 -5.3 44.3 -13 50.1 -13 3.2 0 3.4 0.2 3.4 3.3 0 3.5 -4 16.2 -5.6 17.6 -0.5 0.5 -6.5 2.5 -13.4 4.6 -28.1 8.3 -29.8 8.8 -33.7 8 -2.2 -0.4 -3.1 -1 -2.3 -1.3 8.5 -2.9 7.6 -3.8 -2.1 -2.2 -7 1.2 -17.1 5 -18.3 6.8 -0.4 0.6 0.7 0.7 2.7 0.2 1.7 -0.4 4.6 -1 6.2 -1.4 l3 -0.6 -3.2 1.5 c-1.8 0.8 -3.3 2.1 -3.3 2.8 0 0.7 -4.7 2.7 -10.8 4.6 -5.9 1.9 -11.1 3.8 -11.7 4.2 -0.5 0.4 -2.8 1 -5 1.4 -2.2 0.4 -5.3 1.1 -7 1.5 -9.9 2.8 -19 5.6 -25.8 8.1 -8.8 3.2 -14.2 3.7 -15.1 1.4 -0.3 -1 0.1 -1.5 1.4 -1.5 1 0 2.2 -0.5 2.6 -1.1 1 -1.7 -14.3 -0.6 -18.6 1.3 -1.9 0.9 -5.1 2.1 -7 2.8 -1.9 0.8 -4.2 1.8 -5 2.5 -0.8 0.6 -3.7 1.7 -6.5 2.4 -6.7 1.6 -8 3.1 -2.9 3.2 2.1 0 3.3 0.3 2.7 0.6 -0.7 0.2 -1.3 1.1 -1.3 1.9 0 0.8 -0.6 1.4 -1.4 1.4 -0.8 0 -2.7 0.5 -4.3 1.2 -3.2 1.3 -12.5 4 -23.3 6.9 -4.1 1 -8.3 2.4 -9.2 2.9 -1 0.6 -2.9 1 -4.3 1 -1.4 0 -6.4 1.4 -11.2 3 -10.1 3.5 -16.3 4 -16.3 1.2z m2 -5.7 c-0.7 -0.8 -1.9 -1.5 -2.7 -1.5 -1.1 0 -0.8 0.8 0.9 2.8 1.5 2 2.4 2.4 2.6 1.5 0.2 -0.8 -0.2 -2 -0.8 -2.8z"/>
  <path d="M217 353 c1.7 -1.3 4.1 -2 7.3 -2 4 0 4.7 0.3 4.7 2 0 1.8 -0.7 2 -7.2 2 l-7.3 0 2.5 -2z"/>
  <path d="M84 277.8 c-0.6 -4 -1.4 -15.3 -1.7 -25 -0.5 -17.6 -0.5 -17.8 1.6 -17.8 1.2 0 2.1 0.6 2.1 1.5 0 1.8 0.9 1.8 10.2 0.3 4 -0.6 10.1 -2.4 13.4 -4 3.4 -1.5 6.7 -2.8 7.2 -2.8 0.6 0 6.6 -1.6 13.4 -3.6 21 -6.1 22.1 -6.4 30.1 -7 7.5 -0.7 7.7 -0.8 6.1 -2.5 -1.6 -1.8 -1.6 -1.9 1.5 -1.9 1.9 0 4.6 1 6.4 2.4 4 3.1 11.4 5.1 15.1 4.2 3.3 -0.8 11.7 -8.4 14.7 -13.2 1.1 -1.9 2.7 -3.4 3.4 -3.4 0.7 0 1.5 -0.6 1.8 -1.2 0.2 -0.7 0.7 -1 1.1 -0.6 0.4 0.3 0.3 1.5 -0.3 2.7 -1.3 2.3 0.3 4 1.6 1.8 0.9 -1.5 21.2 -8.7 31.4 -11.1 3.5 -0.8 8.9 -2.3 12 -3.4 3.6 -1.2 6.4 -1.6 7.8 -1.1 2.4 0.9 2.9 -0.9 0.9 -2.9 -0.9 -0.9 -0.6 -1.2 1.6 -1.2 1.6 0 4.4 1.3 6.7 3.2 3.2 2.6 5.1 3.3 9.8 3.6 3.6 0.3 6.1 0 6.5 -0.7 0.4 -0.6 1.5 -1.1 2.5 -1.1 2.1 0 12.1 -10.2 14.4 -14.7 1.4 -2.6 3.5 -4.3 5.4 -4.3 0.3 0 0.3 0.9 0 2.1 -0.4 1.6 -0.2 1.9 1.1 1.3 0.9 -0.4 13.4 -4.7 27.7 -9.5 26.7 -9.1 38.8 -12.4 40.7 -11.3 0.6 0.4 0.8 -0.1 0.3 -1.5 -0.6 -2 -0.4 -2.2 2.1 -1.9 2.4 0.3 3.5 1.7 8.6 11.3 6.4 12.2 9.8 21.2 9.8 26.1 0 2.9 -0.4 3.3 -5.9 5.3 -3.2 1.1 -6.9 2.1 -8.2 2.1 -4.3 0 -16.3 3.8 -22.4 7.1 -10.3 5.5 -13.3 6.9 -15.1 6.9 -1 0 -3.1 0.4 -4.8 0.9 -1.7 0.5 -5.1 1.5 -7.6 2.1 -2.5 0.7 -5.4 1.6 -6.5 2.1 -1.1 0.4 -7.7 2.2 -14.7 3.9 -10.1 2.4 -14.7 3 -22.3 2.9 -6 -0.1 -10.1 0.3 -10.8 1 -0.6 0.6 -2.2 1.1 -3.6 1.1 -3.2 0.1 -10.4 2.1 -15.3 4.3 -2.1 1 -5.1 1.7 -6.7 1.7 -4.3 0 -17 2.8 -20.5 4.5 -1.6 0.8 -3.4 1.5 -3.9 1.5 -2.5 0 -9.9 4.4 -15.1 9 -4.1 3.6 -6.6 5 -8.7 5 -1.6 0 -5.5 0.8 -8.7 1.8 -9.6 3.1 -13.2 4.1 -26.2 7.3 -11.8 2.8 -23.1 6 -27.5 7.9 -3.4 1.4 -14.7 4.7 -20.5 6 -8.9 2 -15.9 3.9 -25.7 7 -5 1.7 -10.5 3 -12.1 3 -2.9 0 -3 -0.1 -4.2 -7.2z"/>
  <path d="M417.4 77.6 c-0.3 -0.9 0.1 -2.7 1 -4.1 1.3 -2 2.4 -2.5 5.4 -2.4 2.3 0.1 2.9 0.3 1.4 0.6 -1.2 0.2 -2.1 0.7 -1.9 1.1 0.1 0.4 -1 2 -2.5 3.6 -2.3 2.4 -2.9 2.6 -3.4 1.2z"/>
 </g>
 <g fill="#0c1223">
  <path d="M231.5 452 c-0.4 -0.6 -0.3 -7.3 0.1 -15 l0.7 -14 -7.9 0 c-10.8 0 -34.4 -5.6 -48.2 -11.5 -11.8 -5 -32 -16.1 -42.1 -23.3 -3.6 -2.6 -10.3 -8.4 -14.9 -13 l-8.3 -8.4 -6.8 0.7 c-10.7 1.1 -17 -1.2 -24.5 -8.6 -8.9 -8.7 -10.7 -8.1 -12.4 3.9 -0.6 4.5 -1.8 9.5 -2.6 11.1 -2.8 5.3 -8.3 8.5 -18.8 11 l-9.7 2.3 -5.5 -2.5 c-9.5 -4.4 -9.1 -2.4 -9.1 -46.8 0 -37.8 0.1 -38.8 2.1 -41.6 1.1 -1.5 3.8 -3.4 6 -4.1 2.1 -0.7 5.3 -1.9 7 -2.7 5.4 -2.5 23.7 -6.5 29.8 -6.5 5.7 0 5.9 -0.1 4.2 -1.9 -2.3 -2.5 -3.4 -10.3 -4.2 -29.4 -0.7 -18 0.3 -29.3 4.1 -48.2 7 -34.7 22.1 -63.7 45.8 -88.2 6 -6.2 11.7 -11.3 12.6 -11.3 0.9 0 4.1 -2.5 7.1 -5.6 6.5 -6.5 15.5 -13.1 22.5 -16.3 2.8 -1.2 5.7 -2.7 6.5 -3.2 0.8 -0.5 2.2 -1.2 3 -1.6 0.8 -0.3 2.7 -1.7 4.2 -2.9 1.5 -1.2 4.2 -2.5 6 -2.9 1.8 -0.4 3.8 -1.1 4.3 -1.5 2.1 -1.6 12.7 -5 15.5 -5 1.6 0 3.1 -0.4 3.4 -0.9 0.3 -0.5 2.3 -1.1 4.3 -1.4 2.1 -0.3 7.4 -1.3 11.8 -2.3 6 -1.2 13.2 -1.7 29.5 -1.7 23.1 -0.1 29.4 0.7 50.6 6.8 19.9 5.8 46 21 64.6 37.8 15.8 14.3 24.4 24.5 36.2 43.2 5.6 8.9 7.6 12.6 15.4 29.7 2.5 5.4 5 9.3 6.7 10.4 2.5 1.6 3.1 1.6 12.8 0 9.1 -1.6 13.4 -2.6 26.9 -6.6 2.1 -0.6 4 -1.6 4.3 -2.1 0.4 -0.5 2.1 -0.9 4 -0.9 1.9 0 3.7 -0.4 4 -1 1.1 -1.7 8.8 -1.1 12.3 1 6.9 4.2 7.6 12.2 2.6 29.6 -1.4 4.9 -4.6 16.6 -7 25.9 -7.8 29.9 -14.6 40.3 -31.8 48.6 -10.3 5 -15.7 5.2 -24.4 0.8 -3.4 -1.7 -6.9 -2.9 -7.8 -2.7 -1.1 0.2 -2.2 2.7 -3.5 7.6 -3.6 14.4 -16.3 36.9 -32.4 57.3 -19.3 24.6 -51.8 50.7 -70.1 56.3 -1.1 0.3 -4.8 4.1 -8.2 8.4 -5.6 7.1 -13.6 14.5 -26 24.1 -5.5 4.3 -31.3 17.3 -37.5 18.9 -5.7 1.5 -6.4 1.5 -7.2 0.2z m28.9 -30.3 c7 -4.9 23.2 -20.5 28 -26.9 4.9 -6.7 5.5 -7.1 18.6 -13.6 10 -4.9 12.9 -6.7 11.1 -7 -2.6 -0.4 -24.3 5.3 -39.6 10.4 -5.5 1.8 -16.3 4.9 -24 6.9 -19.1 4.9 -29.1 8.4 -31.6 11.1 l-2.1 2.2 6.9 0.8 c3.7 0.5 10.7 0.9 15.6 0.9 l8.7 0 0 9.4 0 9.3 2.7 -0.7 c1.5 -0.3 4.1 -1.6 5.7 -2.8z m-63.3 -29.1 c9.8 -3.6 32.1 -10.4 49.4 -15 15 -4 23.6 -6.6 28 -8.6 2.2 -1 7.4 -2.5 11.5 -3.5 10.5 -2.5 29.6 -8 42 -12.1 5.8 -2 12.8 -3.8 15.5 -4.1 9.1 -1 11.4 -2.6 19.1 -13.6 4.7 -6.8 6.6 -10.3 5.7 -10.5 -2.1 -0.5 -26 5.6 -33.8 8.7 -3.8 1.5 -11.9 4 -18 5.6 -6 1.5 -13 3.5 -15.5 4.5 -2.5 0.9 -6.3 2 -8.5 2.4 -5.1 0.9 -24.7 7.5 -26 8.7 -0.5 0.5 -2.2 0.9 -3.9 0.9 -1.6 0 -4.8 0.9 -7 1.9 -2.3 1.1 -8.5 2.8 -13.8 4 -5.4 1.1 -18.9 5 -30 8.5 -11.2 3.5 -24.1 7.5 -28.8 8.9 -10.4 3 -16 5.3 -16 6.5 0 0.5 1.5 1.6 3.3 2.3 1.7 0.7 5.6 2.8 8.6 4.6 3 1.8 6.2 3.3 7.1 3.3 1 0 5.9 -1.6 11.1 -3.4z m-41.8 -21.6 c4.8 -1.6 9.8 -3 11.2 -3 1.4 0 3.3 -0.4 4.3 -1 0.9 -0.5 5.1 -1.9 9.2 -2.9 10.8 -2.9 20.1 -5.6 23.3 -6.9 1.6 -0.7 4.7 -1.5 7 -1.8 2.3 -0.4 5.1 -1.3 6.2 -2 1.1 -0.8 3.3 -1.4 5 -1.4 1.7 0 8.3 -1.8 14.8 -4 6.4 -2.2 12.3 -4 13.1 -4 0.8 0 5 -1.3 9.3 -2.9 6.8 -2.5 15.9 -5.3 25.8 -8.1 1.7 -0.4 4.7 -1.1 6.9 -1.5 2.1 -0.3 4.6 -1.1 5.5 -1.6 2.4 -1.3 20.9 -7.2 42 -13.3 31.9 -9.3 43.6 -12.9 44.5 -13.7 1 -0.9 5.8 -14.1 5.2 -14.6 -0.8 -0.9 -35.1 8.3 -47.1 12.7 -2.7 1 -7.8 2.3 -11.1 2.9 -3.4 0.6 -9 2 -12.5 3.1 -3.5 1 -17 5.1 -29.9 9 -12.9 3.9 -27.8 8.4 -33 10 -5.2 1.5 -13.5 3.8 -18.5 5 -9.8 2.4 -17.9 4.7 -21 6 -1.1 0.4 -4.9 1.6 -8.5 2.5 -3.6 0.9 -9.6 2.7 -13.5 4 -3.8 1.3 -11.5 3.5 -17 4.9 -31.3 8.2 -33.1 8.8 -36.4 11.4 -1.9 1.6 -3.4 3.1 -3.4 3.6 0.2 1.4 7.8 10.5 8.9 10.6 0.6 0 5 -1.3 9.7 -3z m-108.1 -3.7 c1.5 -1.4 1.8 -3.2 1.8 -11.8 0 -11.1 0.6 -12.5 5.5 -12.5 4.1 0 16.3 -6 19.9 -9.9 4.2 -4.4 6.2 -4.1 7.8 1.1 1.8 6 9.1 13.3 14.8 14.8 8.8 2.4 17.1 -0.8 24.5 -9.4 4.7 -5.6 5.3 -8.1 2.3 -9.9 -1.3 -0.9 -3.3 -0.3 -8.8 2.6 -7.9 4.1 -13.2 4.7 -18 2.2 -5.3 -2.7 -3.2 -5.1 5 -5.8 7.6 -0.7 16.2 -2.7 18 -4.2 0.8 -0.7 3.5 -1.8 5.9 -2.5 l4.3 -1.1 -0.7 -4.5 c-1.9 -12.9 -10.2 -21.4 -21 -21.4 -6.3 0 -15.8 5.1 -20.6 11.2 -2.1 2.7 -3.9 5.4 -3.9 5.9 0 2.4 -1.9 0.5 -2.4 -2.6 -1.5 -7.7 -10.9 -14.2 -18.9 -13 -5.4 0.8 -25 5.6 -25.8 6.4 -0.4 0.3 -1 15.3 -1.3 33.4 l-0.7 32.7 5.2 0 c3.5 0 5.9 -0.6 7.1 -1.7z m91 -26.9 c15.3 -4.2 19 -5.3 25.8 -7.7 l6.5 -2.3 0.3 -6.2 c0.2 -3.4 0.1 -6.2 -0.2 -6.2 -0.3 0 -5.2 1.3 -10.8 3 -5.6 1.6 -10.4 2.7 -10.6 2.5 -0.3 -0.2 2.7 -5.5 6.5 -11.7 10.3 -16.7 15 -25.8 15.8 -30.7 0.7 -4 0.6 -4.3 -1.1 -3.6 -1.1 0.4 -3.7 1.1 -5.9 1.6 -2.2 0.5 -4.9 1.3 -6 1.8 -1.1 0.5 -6.7 1.9 -12.5 3.1 -16.9 3.6 -15.6 2.7 -15.1 9.6 0.2 3.2 0.5 6.1 0.7 6.3 0.3 0.3 3.5 -0.1 7.2 -0.8 3.7 -0.7 8 -1.5 9.6 -1.8 2.5 -0.5 2.8 -0.3 2.2 1.3 -0.7 1.7 -7 12.8 -16.6 28.9 -4.2 7.1 -7.3 15.5 -5.7 15.5 0.3 0 4.8 -1.2 9.9 -2.6z m46.1 -12.8 c1.8 -0.7 5 -1.8 7.2 -2.3 2.2 -0.6 8.2 -2.3 13.3 -3.8 l9.2 -2.8 0 -6.3 c0 -3.6 -0.4 -6.4 -1 -6.4 -0.5 0 -5.6 1.3 -11.2 3 -5.6 1.6 -10.4 2.8 -10.6 2.6 -0.5 -0.6 3.2 -7.1 10.3 -18.1 8.6 -13.1 11.3 -18.4 12.1 -23.6 0.7 -4.1 0.6 -4.2 -1.7 -3.6 -1.3 0.3 -10.4 2.8 -20.1 5.4 l-17.8 4.8 0 6.3 c0 3.6 0.4 6.2 1 6.2 0.6 0 4 -0.9 7.5 -2.1 3.5 -1.1 7.5 -1.9 8.9 -1.7 l2.6 0.3 -6.1 11 c-3.3 6.1 -7.8 13.1 -9.9 15.6 -3.4 4 -3.8 5.3 -4.2 10.7 l-0.3 6.2 3.8 0 c2.2 0 5.3 -0.6 7 -1.4z m65.2 -19.7 c6.6 -3.2 15.5 -12.5 15.5 -16.1 0 -4 -7 -6.9 -8.3 -3.5 -0.9 2.4 -12.2 7.7 -16.3 7.7 -4.8 0 -9.8 -2.9 -11.9 -6.9 -1.8 -3.5 -2 -12.4 -0.4 -17.2 1.4 -4.3 8.4 -11.7 12.6 -13.5 4.5 -1.9 12.2 -1.8 14.5 0.2 1.6 1.6 2 1.4 6.3 -2 2.5 -2.1 4.5 -4.4 4.5 -5.1 0 -2.4 -4.3 -5.5 -9.9 -7.1 -13.6 -4 -28.3 3.4 -36.7 18.2 -7.2 12.8 -8.2 24 -3.1 34 3.9 7.8 8.7 11.4 18.2 13.8 3.8 0.9 10.3 -0.1 15 -2.5z m27 -6.8 l5 -1.9 0.3 -17.6 0.2 -17.5 4.7 -3.6 c4.8 -3.7 10.7 -4.7 13.1 -2.3 0.8 0.8 1.2 6.3 1.2 18 0 9.2 0.2 16.8 0.5 16.8 1 0 11.6 -2.9 12.5 -3.5 1.2 -0.7 0.6 -35.2 -0.8 -38.5 -1.5 -3.9 -6.1 -7.9 -9.7 -8.6 -4.4 -0.8 -10.4 1 -16.4 5.1 l-5.1 3.4 0 -10.6 c0 -9.6 -0.2 -10.5 -1.7 -9.8 -1 0.3 -3.9 1.1 -6.5 1.7 l-4.8 1.1 0 34.9 c0 27.2 0.3 34.8 1.3 34.8 0.6 0 3.5 -0.9 6.2 -1.9z m63.3 -18 c2 -1 4.8 -3.1 6.1 -4.5 2.8 -3 4.9 -3.3 6.6 -1 1 1.4 1.7 1.5 6.1 0.2 l4.9 -1.4 0 -18.6 c0 -21.1 -0.3 -22.1 -8.1 -26.5 -7.2 -4.2 -17 -2.9 -28.6 3.6 l-5.5 3.1 1.1 5.1 1 5.1 4.6 -0.7 c2.5 -0.4 5.5 -1.3 6.7 -2.1 3.3 -2.1 13.3 -3 14.4 -1.3 1.8 2.8 0.8 3.7 -6.3 5.9 -8.7 2.6 -12 4.2 -17.2 8.3 -4.3 3.4 -7.5 9.5 -7.6 14.2 0 9.7 12.1 15.6 21.8 10.6z m-240.8 -4.6 c8.5 -2.7 16 -4.7 24 -6.5 5.8 -1.3 17.1 -4.6 20.5 -6 4.4 -1.9 15.7 -5.1 27.5 -7.9 13 -3.2 16.6 -4.2 26.2 -7.3 3.2 -1 7.1 -1.8 8.7 -1.8 2.1 0 4.6 -1.4 8.7 -5 5.2 -4.6 12.6 -9 15.1 -9 0.5 0 2.3 -0.7 3.9 -1.5 3.5 -1.7 16.2 -4.5 20.5 -4.5 1.6 0 4.6 -0.7 6.7 -1.7 4.9 -2.2 12.1 -4.2 15.3 -4.3 1.4 0 3 -0.5 3.7 -1.2 0.8 -0.8 5.2 -1.2 12.4 -1.3 8.6 -0.1 14 -0.8 22.3 -2.9 6.1 -1.5 11.9 -3.1 13 -3.5 1.1 -0.5 4 -1.4 6.5 -2.1 2.5 -0.6 5.9 -1.6 7.6 -2.1 1.7 -0.5 3.8 -0.9 4.8 -0.9 1.8 0 4.8 -1.4 15.1 -6.9 6.1 -3.3 18.1 -7.1 22.5 -7.1 2 0 12.8 -3.5 13.8 -4.4 0.6 -0.6 -3.9 -11.8 -7.8 -19.6 -17.1 -34.1 -43.8 -61.8 -75 -77.9 -13.5 -6.9 -24.8 -11.1 -39.1 -14.3 -9.1 -2 -12.9 -2.3 -30.4 -2.2 -21 0.1 -26 0.8 -45.2 6 -9.5 2.5 -27.2 10.4 -29.3 13 -0.7 0.8 -1.8 1.4 -2.5 1.4 -0.6 0 -3.9 2.5 -7.2 5.5 -4.2 3.8 -7 5.5 -8.8 5.5 -6.7 0 -32.2 26.5 -42.6 44.3 -10.3 17.5 -18 37.4 -21.4 55 -2 10.7 -3.9 39.4 -3.2 50.2 0.3 5 1.1 12.5 1.8 16.8 1 6.5 1.4 7.7 2.8 7.2 0.9 -0.4 5 -1.7 9.1 -3z m291.1 -8.6 l4.9 -2.1 0 -6.5 c0 -5.8 -0.2 -6.4 -1.7 -5.8 -1 0.4 -3.1 1 -4.7 1.3 -4.6 0.8 -5.6 -1.6 -5.6 -13.5 0 -11.1 0.6 -12.3 6.4 -12.3 1.4 0 2.8 -0.5 3.2 -1.2 0.7 -1.1 0.6 -12.9 -0.1 -13.7 -0.4 -0.3 -3.4 0.6 -7.5 2.3 -1.2 0.5 -1.5 -0.5 -1.5 -5.9 0 -3.6 -0.2 -6.5 -0.5 -6.5 -0.5 0 -6.7 1.4 -11.9 2.6 -2.3 0.5 -2.4 0.8 -1.8 6.8 l0.6 6.2 -3.2 1 c-2.9 0.8 -3.3 1.3 -3.8 5.9 -0.3 2.8 -0.4 5.3 -0.2 5.8 0.2 0.4 2.1 0.7 4.1 0.7 l3.7 0 -0.3 13.8 c-0.3 13 -0.2 13.9 1.9 16.6 2.8 3.6 7.7 6.6 10.7 6.6 1.3 0 4.6 -1 7.3 -2.1z m53.4 -0.5 c5.6 -2.7 8.8 -5.9 11.9 -12.1 3.8 -7.6 21.3 -62.9 20.2 -64 -0.4 -0.5 -12.5 2.3 -13.2 3 -0.3 0.3 -1.4 4.5 -2.4 9.3 -2.5 11.3 -7.4 27 -8.5 26.7 -0.5 -0.1 -2.1 -3.5 -3.6 -7.5 -5 -13.4 -8.6 -21.3 -9.7 -21.1 -13.8 3.1 -18.5 4.3 -21.1 5.6 l-3.1 1.5 0 -6.4 c0 -3.5 -0.1 -6.4 -0.2 -6.4 -0.2 0.1 -3.2 0.9 -6.8 1.9 l-6.5 1.8 0.3 6.7 c0.4 6.5 0.4 6.6 -2.2 6.6 -2.5 0 -2.6 0.2 -2.6 6.5 l0 6.5 3 0 3 0 0 13.9 c0 13.5 0.1 14 2.6 17 4 4.7 8.7 5.7 15.4 3.2 7.9 -3 7.8 -2.9 7.2 -8.9 l-0.5 -5.4 -4.7 0.7 c-7.2 1 -8 -0.3 -8 -13.5 l0 -10.8 3.3 -0.6 c1.7 -0.3 4.7 -1.5 6.5 -2.6 3 -1.8 3.2 -2.3 2.6 -5.5 -0.7 -3.8 0.8 -4.8 2.5 -1.7 2.4 4.4 15.1 35.8 15.1 37.2 0 2.6 -7.2 8 -10.6 8 -1.4 0 -1.6 0.7 -1 4.6 0.3 2.6 0.6 5.5 0.6 6.5 0 2.7 3.8 2.4 10.5 -0.7z"/>
  <path d="M49 322.8 l0.5 -9.3 3.5 -1.2 c4.6 -1.6 13.3 -1.6 14.8 -0.1 3 3 0.8 10.8 -4.3 15 -1.8 1.5 -11.5 4.8 -14.1 4.8 -0.5 0 -0.7 -3.8 -0.4 -9.2z"/>
  <path d="M93 318.2 c0 -0.8 1.8 -3.2 4 -5.2 3.4 -3.1 5.1 -3.9 9.8 -4.5 5.3 -0.7 5.8 -0.5 7.9 2 2.5 2.8 2.3 4.5 -0.5 4.5 -0.9 0 -6.1 1.1 -11.4 2.4 -8.4 2 -9.8 2.1 -9.8 0.8z"/>
  <path d="M333 270 c-0.8 -1.4 -0.8 -2.6 0 -4.1 1.4 -2.5 10.4 -6.9 14.4 -6.9 2.7 0 2.8 0.2 2.2 3.3 -0.9 4.9 -6.6 9.7 -11.6 9.7 -2.9 0 -4.2 -0.5 -5 -2z"/>
  <path d="M177.5 223.8 c-16.6 -5.9 -22.8 -27.1 -12 -41.3 4.8 -6.2 15.9 -11.5 24.3 -11.5 7.7 0 16.2 5.7 19.8 13.4 3.3 7 3.2 15.3 -0.1 22.3 -2.6 5.8 -10.4 14.7 -14.7 16.9 -3.1 1.6 -12.9 1.7 -17.3 0.2z"/>
  <path d="M272.5 196.4 c-8.1 -4.2 -13.5 -12.9 -13.7 -22.2 -0.4 -16 9.8 -27.3 25.8 -28.8 12.1 -1.1 20.2 4 25.5 16.2 2.5 5.6 2 12.2 -1.3 18.8 -2.7 5.2 -12.6 15.6 -14.9 15.6 -1 0 -2.1 0.5 -2.4 1 -1 1.6 -15.6 1.2 -19 -0.6z"/>
 </g>
</svg>